# xmcd CD database file
# Copyright (C) 1993-1998 Ti Kan
#
# Track frame offsets:
#	150
#	16287
#	35355
#	53797
#	79255
#	101835
#	129467
#	154395
#	171897
#	188170
#	209215
#	229072
#
# Disc length: 3348 seconds
#
# Revision: 1
# Processed by: cddbd v1.4b41PL1 Copyright (c) Steve Scherf et al.
# Submitted via: NotifyCDPlayer(CDDB) 1.51.3
#
DISCID=a50d120c
DTITLE=The Brown Hornets - The Brown Hornets
DYEAR=1900
DGENRE=
TTITLE0=All Alone
TTITLE1=So Many Roads
TTITLE2=Shadow of a Red Dress
TTITLE3=Litterbug
TTITLE4=Cotton Candy
TTITLE5=50 Pounds of Sole
TTITLE6=Blues Requiem
TTITLE7=Jr. Sam
TTITLE8=I'm Dead
TTITLE9=Solitary Volture
TTITLE10=Martin Smith
TTITLE11=Harlem
EXTD=The Brown Hornets are a young electric rock and blues outfit that reside 
EXTD=in the \nrural town of Newcastle, Ontario, Canada. The "Hornet Sound" i
EXTD=s a raw energetic\nforce that holds its origins in the eclectic tastes 
EXTD=and influences of the band members.\nTo fully understand what the Horne
EXTD=ts are all about one would have to listen to and\nhence experience the 
EXTD=depth and sincerity of their music.  Their ambition has less to\ndo wit
EXTD=h making it big and more to do with playing music that suits their idea
EXTD=ls.  This\nalbum was recorded live so to enable the listener to fully g
EXTD=rasp the Brown Hornet\nexperience.  This is how they sounded on sunny A
EXTD=ugust day.\n\nThe Brown Hornets are:\n\n* Dan "bullfrog" Walters - voca
EXTD=ls, organ, bass\n* Mike "boogie-boy" Tomlinson - guitar\n* Blaine "scoo
EXTD=by" Tait - drums and percussion\n* ----------------- harp and backing v
EXTD=ocals (acutally Cameron Esler]\n\nTo correspond with The Brown Hornets 
EXTD=send a S.A.S.E to\n\nBlaine Tait\n283 Andrew St.\nNewcastle, ON\nL1B 1K
EXTD=3\nCanada
EXTT0=
EXTT1=
EXTT2=
EXTT3=
EXTT4=
EXTT5=
EXTT6=
EXTT7=
EXTT8=
EXTT9=
EXTT10=
EXTT11=
PLAYORDER=
